<!-- icon666.com - MILLIONS vector ICONS FREE --><svg viewBox="0 -54 512.00103 512" xmlns="http://www.w3.org/2000/svg"><path d="m263.402344 246.839844c61.902344-41.292969 78.609375-124.953125 37.316406-186.859375-41.296875-61.902344-124.953125-78.609375-186.855469-37.316407-61.90625 41.296876-78.613281 124.953126-37.320312 186.859376 9.859375 14.777343 22.542969 27.457031 37.320312 37.316406-66.671875 15.9375-113.746093 75.480468-113.863281 144.03125 0 7.441406 6.03125 13.476562 13.472656 13.476562h350.316406c7.441407 0 13.476563-6.03125 13.476563-13.476562-.121094-68.550782-47.191406-128.09375-113.863281-144.03125zm-182.558594-111.96875c0-59.527344 48.257812-107.789063 107.789062-107.789063 59.527344 0 107.789063 48.261719 107.789063 107.789063 0 59.53125-48.257813 107.789062-107.789063 107.789062-59.503906-.066406-107.722656-48.285156-107.789062-107.789062zm-53.144531 242.527344c6.929687-61.339844 58.78125-107.714844 120.511719-107.789063h80.839843c61.730469.074219 113.582031 46.449219 120.515625 107.789063zm0 0"></path><path d="m498.527344 188.765625h-40.421875v-40.417969c0-7.441406-6.03125-13.476562-13.472657-13.476562-7.445312 0-13.476562 6.03125-13.476562 13.476562v40.417969h-40.421875c-7.441406 0-13.472656 6.035156-13.472656 13.476563 0 7.441406 6.03125 13.472656 13.472656 13.472656h40.421875v40.421875c0 7.441406 6.03125 13.472656 13.476562 13.472656 7.441407 0 13.472657-6.03125 13.472657-13.472656v-40.421875h40.421875c7.441406 0 13.472656-6.03125 13.472656-13.472656 0-7.441407-6.03125-13.476563-13.472656-13.476563zm0 0"></path></svg>