<svg id="Слой_1" xmlns="http://www.w3.org/2000/svg" viewBox="0 0 220.9 86.7"><style>.st0{fill:#ff9d26}</style><path d="M102.9 65.4c-.9 0-1.5-.3-2-.8s-.7-1.2-.7-2.2c0-.9.2-1.7.7-2.2s1.1-.8 1.8-.8 1.3.2 1.7.7c.4.5.6 1.1.6 1.9v.6h-4c0 .7.2 1.2.5 1.5.3.3.8.5 1.4.5s1.2-.1 1.8-.4v.8l-.9.3c-.1.1-.5.1-.9.1zm-.2-5.2c-.5 0-.8.2-1.1.5-.3.3-.4.7-.5 1.2h3c0-.5-.1-1-.4-1.3-.2-.3-.5-.4-1-.4zm8.8 7.1h-.8v-2h-4v2h-.8v-2.7h.5c.5-.6.8-1.4 1.1-2.2.3-.9.4-1.8.4-2.8h2.9v5h.8l-.1 2.7zm-1.6-2.7v-4.3h-1.3c0 .8-.2 1.6-.4 2.4-.3.8-.6 1.4-.9 2l2.6-.1zm3.6-5v4.9l3.1-4.9h1.1v5.7h-.9v-3.5l.1-.7v-.7l-3.1 4.9h-1.1v-5.7zm6.9 0V62h3.2v-2.4h.9v5.7h-.9v-2.6h-3.2v2.6h-.9v-5.7zm9.5 5.7l-.2-.8c-.3.4-.6.6-.9.7-.3.1-.6.2-1.1.2-.6 0-1-.1-1.3-.4s-.5-.7-.5-1.3c0-1.2.9-1.8 2.8-1.8h1v-.4c0-.4-.1-.8-.3-1s-.5-.3-.9-.3c-.5 0-1 .1-1.6.4l-.3-.7c.3-.2.6-.3.9-.4.3-.1.7-.1 1-.1.7 0 1.2.2 1.5.5s.5.8.5 1.5v3.9h-.6zm-2-.6c.5 0 1-.1 1.3-.4.3-.3.5-.7.5-1.2v-.5h-.9c-.7 0-1.2.1-1.5.3s-.5.5-.5.9c0 .3.1.6.3.7.2.1.4.2.8.2zm4.7.6h-1l1.7-2.4c-.4-.1-.8-.3-1-.6s-.4-.6-.4-1.1.2-.9.5-1.2c.4-.3.8-.5 1.5-.5h2.6v5.7h-.9V63h-1.5l-1.5 2.3zm.1-4c0 .7.5 1 1.4 1h1.4v-1.9H134c-.9-.1-1.3.2-1.3.9zm10.7 4.1c-.8 0-1.5-.3-1.9-.8-.5-.5-.7-1.2-.7-2.2s.2-1.7.7-2.2 1.1-.8 2-.8c.3 0 .6 0 .8.1.3.1.5.1.7.2l-.3.7c-.2-.1-.4-.1-.6-.2-.2-.1-.4-.1-.6-.1-1.2 0-1.8.7-1.8 2.2 0 .7.1 1.2.4 1.6.3.4.7.6 1.3.6.5 0 1-.1 1.5-.3v.8c-.5.3-1 .4-1.5.4zm3.6-5.8v4.6l-.1.3 3.1-4.9h1.1v5.7h-.8v-4.2l.1-.7-3.1 4.9h-1.1v-5.7zm8.3 5.8c-.8 0-1.5-.3-1.9-.8-.5-.5-.7-1.2-.7-2.2s.2-1.7.7-2.2 1.1-.8 2-.8c.3 0 .6 0 .8.1.3.1.5.1.7.2l-.3.7c-.2-.1-.4-.1-.6-.2-.2-.1-.4-.1-.6-.1-1.2 0-1.8.7-1.8 2.2 0 .7.1 1.2.4 1.6.3.4.7.6 1.3.6.5 0 1-.1 1.5-.3v.8c-.5.3-.9.4-1.5.4zm6.7-5.1h-1.9v5h-.9v-5h-1.8v-.7h4.6zm3.4 5.1c-.9 0-1.5-.3-2-.8s-.7-1.2-.7-2.2c0-.9.2-1.7.7-2.2s1.1-.8 1.8-.8 1.3.2 1.7.7.6 1.1.6 1.9v.6h-4c0 .7.2 1.2.5 1.5.3.3.8.5 1.4.5.6 0 1.2-.1 1.8-.4v.8l-.9.3c-.1.1-.5.1-.9.1zm-.2-5.2c-.5 0-.8.2-1.1.5s-.4.7-.5 1.2h3c0-.5-.1-1-.4-1.3-.2-.3-.5-.4-1-.4zm6.8 4.3l.2-.5.2-.6 1.6-3.8h1.1v5.7h-.8v-4.7l-.1.3-.3.8-1.5 3.6h-.7l-1.5-3.7c-.2-.5-.3-.8-.4-1.1v4.7h-.8v-5.7h1.1l1.5 3.6c.2.5.3.9.4 1.4zm8.5.8l-.2-.8c-.3.4-.6.6-.9.7-.3.1-.6.2-1.1.2-.6 0-1-.1-1.3-.4s-.5-.7-.5-1.3c0-1.2.9-1.8 2.8-1.8h1v-.4c0-.4-.1-.8-.3-1s-.5-.3-.9-.3c-.5 0-1 .1-1.6.4l-.3-.7c.3-.2.6-.3.9-.4.3-.1.7-.1 1-.1.7 0 1.2.2 1.5.5s.5.8.5 1.5v3.9h-.6zm-2-.6c.5 0 1-.1 1.3-.4.3-.3.5-.7.5-1.2v-.5h-.9c-.7 0-1.2.1-1.5.3s-.5.5-.5.9c0 .3.1.6.3.7.2.1.5.2.8.2zM104.9 77l-.2-.8c-.3.4-.6.6-.9.7s-.6.2-1.1.2c-.6 0-1-.1-1.3-.4s-.5-.7-.5-1.3c0-1.2.9-1.8 2.8-1.8h1v-.4c0-.4-.1-.8-.3-1-.2-.2-.5-.3-.9-.3-.5 0-1 .1-1.6.4l-.3-.7c.3-.2.6-.3.9-.4s.7-.1 1-.1c.7 0 1.2.2 1.5.5s.5.8.5 1.5V77h-.6zm-2-.6c.5 0 1-.1 1.3-.4s.5-.7.5-1.2v-.5h-.9c-.7 0-1.2.1-1.5.3-.3.2-.5.5-.5.9 0 .3.1.6.3.7.2.1.5.2.8.2zm9.1-3.7c0 .4-.1.7-.3.9-.2.2-.5.3-.9.4.5.1.8.2 1.1.4.2.2.3.5.3.9 0 .5-.2.9-.6 1.2-.4.3-1 .4-1.7.4h-2.5v-5.7h2.5c1.4.1 2.1.6 2.1 1.5zm-.7 2.6c0-.3-.1-.5-.4-.7-.2-.1-.6-.2-1.2-.2h-1.6v1.9h1.6c1.1 0 1.6-.3 1.6-1zm-.1-2.5c0-.3-.1-.5-.3-.6-.2-.1-.5-.2-1-.2h-1.6v1.6h1.5c.5 0 .9-.1 1.1-.2.1-.1.3-.3.3-.6zm6.1-.8h-1.8v5h-.9v-5h-1.9v-.7h4.6zm6 2.1c0 .9-.2 1.7-.7 2.2s-1.1.8-2 .8c-.5 0-1-.1-1.4-.4-.4-.2-.7-.6-.9-1-.2-.5-.3-1-.3-1.6 0-.9.2-1.7.7-2.2s1.1-.8 2-.8c.8 0 1.4.3 1.9.8.5.6.7 1.3.7 2.2zm-4.4 0c0 .7.1 1.3.4 1.7.3.4.7.6 1.3.6.6 0 1-.2 1.3-.6s.4-.9.4-1.7c0-.7-.1-1.3-.4-1.7-.3-.4-.7-.6-1.3-.6-.6 0-1 .2-1.3.6-.2.4-.4 1-.4 1.7zm8.9 2.1l.2-.5.2-.6 1.6-3.8h1.1V77h-.8v-4.7l-.1.3-.3.8-1.5 3.6h-.7l-1.5-3.7c-.2-.5-.3-.8-.4-1.1V77h-.8v-5.7h1.1l1.5 3.6c.2.4.3.8.4 1.3zm8.5.8l-.2-.8c-.3.4-.6.6-.9.7-.3.1-.6.2-1.1.2-.6 0-1-.1-1.3-.4s-.5-.7-.5-1.3c0-1.2.9-1.8 2.8-1.8h1v-.4c0-.4-.1-.8-.3-1s-.5-.3-.9-.3c-.5 0-1 .1-1.6.4l-.3-.7c.3-.2.6-.3.9-.4.3-.1.7-.1 1-.1.7 0 1.2.2 1.5.5s.5.8.5 1.5V77h-.6zm-2-.6c.5 0 1-.1 1.3-.4s.5-.7.5-1.2v-.5h-.9c-.7 0-1.2.1-1.5.3-.3.2-.5.5-.5.9 0 .3.1.6.3.7.2.1.5.2.8.2zm8.3-4.4h-1.9v5h-.8v-5H138v-.7h4.6zm2-.7v3.6l-.1 1v.3l3.1-4.9h1.1V77h-.8v-4.9l-3.1 4.9h-1.1v-5.7zm7.1 2.4c1.1 0 1.6-.3 1.6-.9s-.4-.8-1.3-.8c-.3 0-.5 0-.7.1-.2 0-.5.1-.9.3l-.3-.7c.6-.3 1.2-.4 1.9-.4s1.2.1 1.6.4c.4.3.6.6.6 1.1 0 .6-.4 1.1-1.1 1.3.4.1.8.3 1 .6.2.2.3.5.3.9 0 .5-.2.9-.6 1.2-.4.3-1 .4-1.8.4s-1.5-.1-1.9-.4V76c.6.3 1.3.5 1.9.5.5 0 .9-.1 1.1-.3.3-.2.4-.4.4-.7 0-.7-.5-1-1.6-1h-.9v-.7h.7v-.1zm7.6 3.3l-.2-.8c-.3.4-.6.6-.9.7-.3.1-.6.2-1.1.2-.6 0-1-.1-1.3-.4s-.5-.7-.5-1.3c0-1.2.9-1.8 2.8-1.8h1v-.4c0-.4-.1-.8-.3-1s-.5-.3-.9-.3c-.5 0-1 .1-1.6.4l-.3-.7c.3-.2.6-.3.9-.4.3-.1.7-.1 1-.1.7 0 1.2.2 1.5.5s.5.8.5 1.5V77h-.6zm-2-.6c.5 0 1-.1 1.3-.4s.5-.7.5-1.2v-.5h-.9c-.7 0-1.2.1-1.5.3-.3.2-.5.5-.5.9 0 .3.1.6.3.7.2.1.5.2.8.2zm10 2.6h-.8v-2h-4.8v-5.7h.9v5h3v-5h.9v5h.8zm2-7.7v3.6l-.1 1v.3l3.1-4.9h1.1V77h-.8v-4.9l-3.1 4.9h-1.1v-5.7zm6.8 0v3.6l-.1 1v.3l3.1-4.9h1.1V77h-.8v-4.2l.1-.7-3.2 4.9h-1v-5.7zM36.4 7.2C55.9 2 76 13.6 81.2 33.2c2.3 8.7 1.3 17.4-2.2 25l-2.7-1.6c3.1-6.8 4-14.8 1.9-22.6-4.8-17.9-23.1-28.5-41-23.8-17.9 4.8-28.4 23.7-23.8 41S33 78.6 49.8 75.9l.7 3C32 82.1 15.5 71 10.4 52c-5-19 6.5-39.6 26-44.8z"/><path class="st0" d="M74.6 77.3c.1.5-.2.7-.5 1l-2.9 2.1c-1 .7-1.2.3-1.9-.6L63.6 72c-.2-.3-.5-.6-.7-1-1.1-1.5-1.1-.7-3.1 2.5l-2.6 4.3c-.7 1.2-.6.7-1.3-2.4l-6.4-27.9c.3-.2.3-.2.9.2.3.2.5.3.8.5l6.8 4.1c.6.4 1.1.6 1.7 1 .6.4 1.1.7 1.7 1.1.3.2.5.3.9.5 1 .6 4.7 2.9 5.5 3.3.8.4 4.7 3 6 3.6l2.5 1.6c.2.2.2.1.3.5-.9.5-6.3 1.5-8.1 2-2.2.5-1.5.7 0 2.8.4.6 6 8.3 6.1 8.6zM46.8 48.6l7 30.3c.2.8.8 1.4 1.3 1.8 1.4.9 2.9.5 4-.8l2.1-3.4c.2-.3.3-.5.5-.8.2-.4.2-.6.5-.9l5.7 7.8c1 1 2 1.2 3.4.8.7-.2 1.6-.9 2.1-1.2.6-.5 1.2-.9 1.9-1.4 1-.7 1.7-1.3 1.9-2.7.3-1.6-.5-2.4-1.4-3.6l-1.5-2.1-1.5-2.1-1.5-2.1c.9-.2 1.9-.4 2.8-.6.4-.1.4-.2.6-.2.4-.1.3 0 .6-.1 1.4-.4 2.6-.5 3.4-1.6 1-1.5.5-3.2-1-4.2-.2-.1-.3-.1-.5-.3-.2-.1-.3-.2-.5-.3l-.9-.6c-.3-.2-.6-.4-.9-.5l-.3-.1c-.9-.5-1.9-1.2-2.6-1.6l-3.8-2.2c-.6-.4-1.2-.7-1.8-1.2l-1-.5-6.6-4c-.6-.4-1.2-.8-1.9-1.2l-3.8-2.3c-1.7-1.1-2.6-2-4.6-1.6-.7.2-1.5.8-1.7 1.4 0 .4-.2 1.3 0 2.1z"/><path d="M35 59.5c2.2 0 4 1.8 4 4s-1.8 4-4 4-4-1.8-4-4 1.8-4 4-4zm14.7-31.7c2.3 0 4.1 1.9 4.1 4.1 0 2.3-1.9 4.1-4.1 4.1s-4.1-1.9-4.1-4.1c0-2.2 1.8-4.1 4.1-4.1zm17.4-1.3c2.8 0 5.1 2.3 5.1 5.1s-2.3 5.1-5.1 5.1-5.1-2.3-5.1-5.1c0-2.9 2.3-5.1 5.1-5.1zM56.2 19c1.2 0 2.2 1 2.2 2.2s-1 2.2-2.2 2.2-2.2-1-2.2-2.2 1-2.2 2.2-2.2zm13.5 23c1.2 0 2.2 1 2.2 2.2s-1 2.2-2.2 2.2-2.2-1-2.2-2.2c0-1.3 1-2.2 2.2-2.2zM27.2 27.1c1.2 0 2.2 1 2.2 2.2s-1 2.2-2.2 2.2-2.2-1-2.2-2.2.9-2.2 2.2-2.2zm12.6-11c2.2 0 4 1.8 4 4s-1.8 4-4 4-4-1.8-4-4 1.8-4 4-4zM23.4 39.6c3.4 0 6.2 2.8 6.2 6.2S26.8 52 23.4 52s-6.2-2.8-6.2-6.2c0-3.4 2.8-6.2 6.2-6.2zm80.7-.3h1.3c1.2 0 2.1-.2 2.7-.7s.9-1.2.9-2.1c0-.9-.3-1.6-.8-2s-1.3-.7-2.4-.7H104v5.5h.1zm8.9-2.9c0 2-.6 3.5-1.9 4.6-1.2 1.1-3 1.6-5.3 1.6h-1.7v6.6h-3.9V30.6h5.9c2.3 0 4 .5 5.1 1.5 1.3.9 1.8 2.3 1.8 4.3zm3.1-5.1c0-1.3.7-1.9 2.1-1.9s2.1.6 2.1 1.9c0 .6-.2 1.1-.5 1.4-.4.3-.9.5-1.6.5-1.4 0-2.1-.7-2.1-1.9zm4 17.9h-3.9V34.9h3.9v14.3zm14 0h-11.3v-2.3l6.6-9h-6.2v-3h10.6v2.6l-6.4 8.7h6.7zm12.7 0h-11.3v-2.3l6.6-9h-6.2v-3h10.6v2.6l-6.4 8.7h6.7zm11.8 0l-.8-1.9h-.1c-.7.8-1.3 1.4-2 1.7s-1.6.5-2.7.5c-1.4 0-2.4-.4-3.2-1.2s-1.2-1.9-1.2-3.3c0-1.5.5-2.6 1.6-3.3s2.6-1.1 4.8-1.2l2.5-.1v-.6c0-1.4-.7-2.2-2.2-2.2-1.1 0-2.5.3-4 1L150 36c1.6-.9 3.4-1.3 5.4-1.3 1.9 0 3.4.4 4.4 1.2s1.5 2.1 1.5 3.8v9.5h-2.7zm-1.1-6.6l-1.5.1c-1.1 0-2 .2-2.5.6-.6.4-.8.9-.8 1.7 0 1.1.6 1.6 1.9 1.6.9 0 1.6-.3 2.2-.8.5-.5.8-1.2.8-2.1l-.1-1.1zm19.1 1.4c0 1.7-.6 3-1.8 4s-2.9 1.4-5 1.4c-2 0-3.7-.4-5.3-1.1v-3.7c1.3.6 2.3 1 3.2 1.2s1.7.3 2.4.3c.9 0 1.5-.2 2-.5s.7-.8.7-1.5c0-.4-.1-.7-.3-1s-.5-.6-.9-.8c-.4-.3-1.2-.7-2.4-1.3-1.1-.5-2-1-2.6-1.5s-1-1.1-1.4-1.7c-.3-.7-.5-1.4-.5-2.3 0-1.6.6-2.9 1.7-3.9 1.1-.9 2.7-1.4 4.6-1.4 1 0 1.9.1 2.8.3.9.2 1.8.6 2.8 1l-1.3 3.1c-1-.4-1.8-.7-2.5-.9s-1.3-.2-1.9-.2c-.7 0-1.3.2-1.7.5s-.6.8-.6 1.4c0 .3.1.7.2.9.2.3.4.5.8.8.4.2 1.2.7 2.5 1.3 1.7.8 2.9 1.7 3.6 2.5.6.9.9 1.9.9 3.1zm6.1-2c0 1.4.2 2.5.7 3.2s1.2 1.1 2.3 1.1c1 0 1.8-.4 2.2-1.1.5-.7.7-1.8.7-3.2s-.2-2.5-.7-3.2-1.2-1.1-2.2-1.1-1.8.4-2.2 1c-.5.9-.8 1.9-.8 3.3zm9.8 0c0 2.3-.6 4.1-1.8 5.4-1.2 1.3-2.9 2-5.1 2-1.4 0-2.6-.3-3.6-.9-1-.6-1.8-1.5-2.4-2.6-.6-1.1-.8-2.4-.8-3.9 0-2.3.6-4.1 1.8-5.4 1.2-1.3 2.9-1.9 5.1-1.9 1.4 0 2.6.3 3.6.9 1 .6 1.8 1.4 2.4 2.6.6 1 .8 2.3.8 3.8zm11.1-4.1h-3.3v11.3h-3.9V37.9h-2.1V36l2.1-1v-1c0-1.6.4-2.8 1.2-3.5s2.1-1.1 3.8-1.1c1.3 0 2.5.2 3.6.6l-1 2.8c-.8-.2-1.5-.4-2.2-.4-.6 0-.9.2-1.2.5-.2.3-.4.7-.4 1.2v.9h3.3l.1 2.9zm8.2 8.4c.7 0 1.5-.1 2.4-.4v2.9c-1 .4-2.2.7-3.6.7-1.6 0-2.7-.4-3.4-1.2s-1.1-2-1.1-3.5v-6.9h-1.9v-1.6l2.1-1.3 1.1-3h2.5v3h4v2.9h-4v6.8c0 .6.2 1 .5 1.2.5.3.9.4 1.4.4z"/></svg>